<?xml version="1.0" encoding="UTF-8" standalone="no"?>
<!-- Created with Inkscape (http://www.inkscape.org/) -->

<svg
   version="1.1"
   id="svg1"
   width="500"
   height="500"
   viewBox="0 0 500 500"
   sodipodi:docname="ORIGINAL-SAMVALLOGO.ai"
   xmlns:inkscape="http://www.inkscape.org/namespaces/inkscape"
   xmlns:sodipodi="http://sodipodi.sourceforge.net/DTD/sodipodi-0.dtd"
   xmlns="http://www.w3.org/2000/svg"
   xmlns:svg="http://www.w3.org/2000/svg">
  <defs
     id="defs1">
    <clipPath
       clipPathUnits="userSpaceOnUse"
       id="clipPath11">
      <path
         d="M 0,375 H 375 V 0 H 0 Z"
         transform="translate(-105.79881,-79.162802)"
         id="path11" />
    </clipPath>
    <clipPath
       clipPathUnits="userSpaceOnUse"
       id="clipPath13">
      <path
         d="M 0,375 H 375 V 0 H 0 Z"
         transform="translate(-128.9893,-89.903102)"
         id="path13" />
    </clipPath>
    <clipPath
       clipPathUnits="userSpaceOnUse"
       id="clipPath15">
      <path
         d="M 0,375 H 375 V 0 H 0 Z"
         transform="translate(-164.4775,-75.018302)"
         id="path15" />
    </clipPath>
    <clipPath
       clipPathUnits="userSpaceOnUse"
       id="clipPath17">
      <path
         d="M 0,375 H 375 V 0 H 0 Z"
         id="path17" />
    </clipPath>
    <clipPath
       clipPathUnits="userSpaceOnUse"
       id="clipPath19">
      <path
         d="M 0,375 H 375 V 0 H 0 Z"
         transform="translate(-223.207,-84.324002)"
         id="path19" />
    </clipPath>
    <clipPath
       clipPathUnits="userSpaceOnUse"
       id="clipPath21">
      <path
         d="M 0,375 H 375 V 0 H 0 Z"
         id="path21" />
    </clipPath>
    <clipPath
       clipPathUnits="userSpaceOnUse"
       id="clipPath23">
      <path
         d="M 0,375 H 375 V 0 H 0 Z"
         transform="translate(-260.56251,-95.5066)"
         id="path23" />
    </clipPath>
    <clipPath
       clipPathUnits="userSpaceOnUse"
       id="clipPath25">
      <path
         d="M 0,375 H 375 V 0 H 0 Z"
         transform="translate(-279.61041,-89.903102)"
         id="path25" />
    </clipPath>
    <clipPath
       clipPathUnits="userSpaceOnUse"
       id="clipPath27">
      <path
         d="M 0,375 H 375 V 0 H 0 Z"
         transform="translate(-37.088401,-104.7234)"
         id="path27" />
    </clipPath>
    <clipPath
       clipPathUnits="userSpaceOnUse"
       id="clipPath29">
      <path
         d="M 0,375 H 375 V 0 H 0 Z"
         transform="translate(-82.403305,-128.1238)"
         id="path29" />
    </clipPath>
    <clipPath
       clipPathUnits="userSpaceOnUse"
       id="clipPath31">
      <path
         d="M 0,375 H 375 V 0 H 0 Z"
         transform="translate(-128.5249,-167.1238)"
         id="path31" />
    </clipPath>
    <clipPath
       clipPathUnits="userSpaceOnUse"
       id="clipPath33">
      <path
         d="M 0,375 H 375 V 0 H 0 Z"
         transform="translate(-212.4385,-167.1238)"
         id="path33" />
    </clipPath>
    <clipPath
       clipPathUnits="userSpaceOnUse"
       id="clipPath35">
      <path
         d="M 0,375 H 375 V 0 H 0 Z"
         transform="translate(-274.97461,-128.1238)"
         id="path35" />
    </clipPath>
    <clipPath
       clipPathUnits="userSpaceOnUse"
       id="clipPath37">
      <path
         d="M 0,375 H 375 V 0 H 0 Z"
         transform="translate(-321.09571,-167.1238)"
         id="path37" />
    </clipPath>
    <clipPath
       clipPathUnits="userSpaceOnUse"
       id="clipPath39">
      <path
         d="M 131.791,184.079 H 243.21 V 318.607 H 131.791 Z"
         transform="translate(-205.32181,-274.138)"
         id="path39" />
    </clipPath>
    <clipPath
       clipPathUnits="userSpaceOnUse"
       id="clipPath41">
      <path
         d="M 131.791,184.079 H 243.21 V 318.607 H 131.791 Z"
         transform="translate(-161.7259,-262.70641)"
         id="path41" />
    </clipPath>
    <clipPath
       clipPathUnits="userSpaceOnUse"
       id="clipPath43">
      <path
         d="M 131.791,184.079 H 243.21 V 318.607 H 131.791 Z"
         transform="translate(-133.02561,-281.4154)"
         id="path43" />
    </clipPath>
    <clipPath
       clipPathUnits="userSpaceOnUse"
       id="clipPath45">
      <path
         d="M 131.791,184.079 H 243.21 V 318.607 H 131.791 Z"
         transform="translate(-133.02561,-281.4154)"
         id="path45" />
    </clipPath>
    <clipPath
       clipPathUnits="userSpaceOnUse"
       id="clipPath47">
      <path
         d="M 0,375 H 375 V 0 H 0 Z"
         transform="translate(-79.182602,-89.903102)"
         id="path47" />
    </clipPath>
    <clipPath
       clipPathUnits="userSpaceOnUse"
       id="clipPath49">
      <path
         d="M 0,375 H 375 V 0 H 0 Z"
         transform="translate(-105.79881,-79.162802)"
         id="path49" />
    </clipPath>
    <clipPath
       clipPathUnits="userSpaceOnUse"
       id="clipPath51">
      <path
         d="M 0,375 H 375 V 0 H 0 Z"
         transform="translate(-128.9893,-89.903102)"
         id="path51" />
    </clipPath>
    <clipPath
       clipPathUnits="userSpaceOnUse"
       id="clipPath53">
      <path
         d="M 0,375 H 375 V 0 H 0 Z"
         transform="translate(-164.4775,-75.018302)"
         id="path53" />
    </clipPath>
    <clipPath
       clipPathUnits="userSpaceOnUse"
       id="clipPath55">
      <path
         d="M 0,375 H 375 V 0 H 0 Z"
         id="path55" />
    </clipPath>
    <clipPath
       clipPathUnits="userSpaceOnUse"
       id="clipPath57">
      <path
         d="M 0,375 H 375 V 0 H 0 Z"
         transform="translate(-223.207,-84.324002)"
         id="path57" />
    </clipPath>
    <clipPath
       clipPathUnits="userSpaceOnUse"
       id="clipPath59">
      <path
         d="M 0,375 H 375 V 0 H 0 Z"
         id="path59" />
    </clipPath>
    <clipPath
       clipPathUnits="userSpaceOnUse"
       id="clipPath61">
      <path
         d="M 0,375 H 375 V 0 H 0 Z"
         transform="translate(-260.56251,-95.5066)"
         id="path61" />
    </clipPath>
    <clipPath
       clipPathUnits="userSpaceOnUse"
       id="clipPath63">
      <path
         d="M 0,375 H 375 V 0 H 0 Z"
         transform="translate(-279.61041,-89.903102)"
         id="path63" />
    </clipPath>
    <clipPath
       clipPathUnits="userSpaceOnUse"
       id="clipPath65">
      <path
         d="M 0,375 H 375 V 0 H 0 Z"
         transform="translate(-37.088401,-104.7234)"
         id="path65" />
    </clipPath>
    <clipPath
       clipPathUnits="userSpaceOnUse"
       id="clipPath67">
      <path
         d="M 0,375 H 375 V 0 H 0 Z"
         transform="translate(-82.403305,-128.1238)"
         id="path67" />
    </clipPath>
    <clipPath
       clipPathUnits="userSpaceOnUse"
       id="clipPath69">
      <path
         d="M 0,375 H 375 V 0 H 0 Z"
         transform="translate(-128.5249,-167.1238)"
         id="path69" />
    </clipPath>
    <clipPath
       clipPathUnits="userSpaceOnUse"
       id="clipPath71">
      <path
         d="M 0,375 H 375 V 0 H 0 Z"
         transform="translate(-212.4385,-167.1238)"
         id="path71" />
    </clipPath>
    <clipPath
       clipPathUnits="userSpaceOnUse"
       id="clipPath73">
      <path
         d="M 0,375 H 375 V 0 H 0 Z"
         transform="translate(-274.97461,-128.1238)"
         id="path73" />
    </clipPath>
    <clipPath
       clipPathUnits="userSpaceOnUse"
       id="clipPath75">
      <path
         d="M 0,375 H 375 V 0 H 0 Z"
         transform="translate(-321.09571,-167.1238)"
         id="path75" />
    </clipPath>
    <clipPath
       clipPathUnits="userSpaceOnUse"
       id="clipPath77">
      <path
         d="M 131.791,184.079 H 243.21 V 318.607 H 131.791 Z"
         transform="translate(-205.32181,-274.138)"
         id="path77" />
    </clipPath>
    <clipPath
       clipPathUnits="userSpaceOnUse"
       id="clipPath79">
      <path
         d="M 131.791,184.079 H 243.21 V 318.607 H 131.791 Z"
         transform="translate(-161.7259,-262.70641)"
         id="path79" />
    </clipPath>
    <clipPath
       clipPathUnits="userSpaceOnUse"
       id="clipPath81">
      <path
         d="M 131.791,184.079 H 243.21 V 318.607 H 131.791 Z"
         transform="translate(-133.02561,-281.4154)"
         id="path81" />
    </clipPath>
    <clipPath
       clipPathUnits="userSpaceOnUse"
       id="clipPath83">
      <path
         d="M 131.791,184.079 H 243.21 V 318.607 H 131.791 Z"
         transform="translate(-133.02561,-281.4154)"
         id="path83" />
    </clipPath>
  </defs>
  <sodipodi:namedview
     id="namedview1"
     pagecolor="#ffffff"
     bordercolor="#000000"
     borderopacity="0.25"
     inkscape:showpageshadow="2"
     inkscape:pageopacity="0.0"
     inkscape:pagecheckerboard="0"
     inkscape:deskcolor="#d1d1d1">
    <inkscape:page
       x="0"
       y="0"
       inkscape:label="2"
       id="page8"
       width="500"
       height="500"
       margin="95.158531 16.750668 75.190666 21.326134"
       bleed="0" />
  </sodipodi:namedview>
  <g
     id="layer-MC0"
     inkscape:groupmode="layer"
     inkscape:label="Capa 1"
     transform="translate(-520)">
    <path
       id="path9"
       d="M 0,0 H 12.861 V -3.311 H 4.04 v -4.614 h 8.08 v -3.31 H 4.04 v -7.012 H 0 Z"
       style="fill:#6f6f6e;fill-opacity:1;fill-rule:nonzero;stroke:none"
       transform="matrix(1.3333333,0,0,-1.3333333,625.5768,380.1292)" />
    <path
       id="path10"
       d="m 0,0 c 0,-1.338 0.366,-2.394 1.1,-3.167 0.732,-0.773 1.695,-1.16 2.889,-1.16 1.158,0 2.092,0.387 2.8,1.16 C 7.496,-2.394 7.85,-1.338 7.85,0 v 10.74 h 4.039 V 0 c 0,-1.581 -0.319,-2.958 -0.958,-4.131 C 10.292,-5.304 9.379,-6.208 8.195,-6.842 7.01,-7.477 5.6,-7.794 3.963,-7.794 c -1.636,0 -3.055,0.317 -4.257,0.952 -1.202,0.634 -2.126,1.538 -2.774,2.711 C -3.716,-2.958 -4.04,-1.581 -4.04,0 V 10.74 H 0 Z"
       style="fill:#6f6f6e;fill-opacity:1;fill-rule:nonzero;stroke:none"
       transform="matrix(1.3333333,0,0,-1.3333333,661.06507,394.4496)"
       clip-path="url(#clipPath11)" />
    <path
       id="path12"
       d="m 0,0 h 3.682 l 9.741,-13.398 -1.048,-0.366 V 0 h 3.81 V -18.247 H 12.528 L 2.787,-4.875 3.861,-4.51 V -18.247 H 0 Z"
       style="fill:#6f6f6e;fill-opacity:1;fill-rule:nonzero;stroke:none"
       transform="matrix(1.3333333,0,0,-1.3333333,691.98573,380.1292)"
       clip-path="url(#clipPath13)" />
    <path
       id="path14"
       d="m 0,0 c 0.767,0 1.466,0.14 2.097,0.417 0.63,0.278 1.18,0.674 1.649,1.187 0.468,0.512 0.831,1.116 1.087,1.811 0.255,0.695 0.383,1.469 0.383,2.32 0,0.851 -0.136,1.629 -0.409,2.333 -0.273,0.703 -0.648,1.321 -1.125,1.851 -0.477,0.529 -1.044,0.934 -1.701,1.212 -0.656,0.277 -1.376,0.417 -2.16,0.417 H -3.63 V 0 Z M -0.102,14.885 C 1.295,14.885 2.57,14.663 3.72,14.22 4.871,13.776 5.864,13.151 6.699,12.343 7.534,11.535 8.182,10.574 8.642,9.463 9.103,8.351 9.333,7.116 9.333,5.761 9.333,4.423 9.103,3.197 8.642,2.086 8.182,0.974 7.525,0.009 6.673,-0.808 5.821,-1.625 4.811,-2.255 3.644,-2.697 2.476,-3.141 1.185,-3.362 -0.23,-3.362 h -7.44 v 18.247 z"
       style="fill:#6f6f6e;fill-opacity:1;fill-rule:nonzero;stroke:none"
       transform="matrix(1.3333333,0,0,-1.3333333,739.30333,399.9756)"
       clip-path="url(#clipPath15)" />
    <path
       id="path16"
       d="m 185.955,78.511 h 10.56 v -3.206 h -10.56 z m 3.451,11.392 h 4.143 l 7.619,-18.247 h -4.296 l -5.522,14.128 -5.548,-14.128 h -4.194 z"
       style="fill:#6f6f6e;fill-opacity:1;fill-rule:nonzero;stroke:none"
       transform="matrix(1.3333333,0,0,-1.3333333,520,500)"
       clip-path="url(#clipPath17)" />
    <path
       id="path18"
       d="M 0,0 C -0.597,0.747 -1.312,1.334 -2.147,1.76 -2.982,2.186 -3.818,2.398 -4.653,2.398 -5.42,2.398 -6.132,2.251 -6.788,1.955 -7.444,1.66 -8.024,1.247 -8.526,0.718 -9.029,0.187 -9.418,-0.435 -9.69,-1.146 c -0.273,-0.713 -0.41,-1.486 -0.41,-2.321 0,-0.816 0.137,-1.581 0.41,-2.294 0.272,-0.712 0.661,-1.333 1.164,-1.863 0.502,-0.53 1.082,-0.947 1.738,-1.251 0.656,-0.305 1.368,-0.456 2.135,-0.456 0.818,0 1.636,0.195 2.455,0.586 0.817,0.391 1.551,0.917 2.198,1.577 l 2.378,-2.528 c -0.631,-0.661 -1.342,-1.235 -2.135,-1.721 -0.793,-0.486 -1.624,-0.864 -2.493,-1.134 -0.869,-0.269 -1.738,-0.404 -2.607,-0.404 -1.347,0 -2.587,0.239 -3.721,0.717 -1.134,0.478 -2.122,1.147 -2.966,2.008 -0.844,0.86 -1.505,1.863 -1.981,3.01 -0.478,1.147 -0.716,2.389 -0.716,3.728 0,1.32 0.238,2.545 0.716,3.675 0.476,1.129 1.15,2.12 2.019,2.971 0.87,0.852 1.88,1.512 3.03,1.982 1.151,0.468 2.408,0.704 3.772,0.704 0.869,0 1.734,-0.122 2.595,-0.365 C -1.249,5.23 -0.438,4.888 0.32,4.445 1.078,4.002 1.756,3.458 2.353,2.815 Z"
       style="fill:#6f6f6e;fill-opacity:1;fill-rule:nonzero;stroke:none"
       transform="matrix(1.3333333,0,0,-1.3333333,817.60933,387.568)"
       clip-path="url(#clipPath19)" />
    <path
       id="path20"
       d="m 235.659,89.903 h 4.04 V 71.656 h -4.04 z"
       style="fill:#6f6f6e;fill-opacity:1;fill-rule:nonzero;stroke:none"
       transform="matrix(1.3333333,0,0,-1.3333333,520,500)"
       clip-path="url(#clipPath21)" />
    <path
       id="path22"
       d="M 0,0 3.477,-1.381 0,-4.196 l -2.864,0.26 z m -0.844,-8.811 c -0.751,0 -1.462,-0.147 -2.135,-0.442 -0.673,-0.296 -1.261,-0.713 -1.764,-1.252 -0.503,-0.538 -0.9,-1.164 -1.19,-1.876 -0.29,-0.713 -0.434,-1.486 -0.434,-2.32 0,-0.834 0.144,-1.612 0.434,-2.333 0.29,-0.722 0.691,-1.356 1.203,-1.903 0.511,-0.547 1.099,-0.973 1.764,-1.277 0.664,-0.305 1.371,-0.457 2.122,-0.457 0.75,0 1.453,0.152 2.11,0.457 0.655,0.304 1.231,0.73 1.725,1.277 0.494,0.547 0.882,1.181 1.163,1.903 0.282,0.721 0.422,1.499 0.422,2.333 0,0.834 -0.14,1.607 -0.422,2.32 -0.281,0.712 -0.669,1.338 -1.163,1.876 -0.494,0.539 -1.07,0.956 -1.725,1.252 -0.657,0.295 -1.36,0.442 -2.11,0.442 m -0.052,3.468 c 1.365,0 2.63,-0.235 3.797,-0.704 1.168,-0.47 2.187,-1.13 3.056,-1.981 C 6.826,-8.88 7.504,-9.87 7.99,-11 c 0.486,-1.13 0.729,-2.363 0.729,-3.701 0,-1.321 -0.243,-2.555 -0.729,-3.701 -0.486,-1.148 -1.164,-2.151 -2.033,-3.011 -0.869,-0.86 -1.888,-1.529 -3.056,-2.008 -1.167,-0.477 -2.432,-0.717 -3.797,-0.717 -1.363,0 -2.628,0.24 -3.796,0.717 -1.167,0.479 -2.186,1.148 -3.055,2.008 -0.87,0.86 -1.547,1.863 -2.033,3.011 -0.486,1.146 -0.729,2.38 -0.729,3.701 0,1.338 0.243,2.576 0.729,3.715 0.486,1.137 1.163,2.128 2.033,2.971 0.869,0.842 1.888,1.498 3.055,1.968 1.168,0.469 2.433,0.704 3.796,0.704"
       style="fill:#6f6f6e;fill-opacity:1;fill-rule:nonzero;stroke:none"
       transform="matrix(1.3333333,0,0,-1.3333333,867.41667,372.65787)"
       clip-path="url(#clipPath23)" />
    <path
       id="path24"
       d="m 0,0 h 3.682 l 9.742,-13.398 -1.049,-0.366 V 0 h 3.81 V -18.247 H 12.528 L 2.787,-4.875 3.86,-4.51 V -18.247 H 0 Z"
       style="fill:#6f6f6e;fill-opacity:1;fill-rule:nonzero;stroke:none"
       transform="matrix(1.3333333,0,0,-1.3333333,892.81387,380.1292)"
       clip-path="url(#clipPath25)" />
    <path
       id="path26"
       d="m 0,0 c -3.281,0 -6.15,0.431 -8.611,1.293 -2.46,0.861 -4.551,2.048 -6.272,3.56 -1.721,1.511 -3.092,3.317 -4.114,5.418 -1.022,2.102 -1.721,4.407 -2.097,6.916 h 9.317 c 0.322,-1.548 0.793,-2.991 1.412,-4.326 0.618,-1.336 1.405,-2.497 2.359,-3.483 0.954,-0.986 2.084,-1.761 3.388,-2.322 1.304,-0.563 2.816,-0.843 4.537,-0.843 1.13,0 2.252,0.136 3.368,0.408 1.116,0.273 2.118,0.719 3.005,1.339 0.887,0.62 1.6,1.422 2.138,2.405 0.537,0.984 0.806,2.201 0.806,3.655 0,1.815 -0.417,3.433 -1.25,4.855 C 7.152,20.297 6.05,21.591 4.679,22.756 3.308,23.92 1.748,25.002 0,26.001 c -1.748,0.998 -3.536,2.004 -5.364,3.018 -1.829,1.013 -3.617,2.08 -5.365,3.2 -1.748,1.119 -3.307,2.367 -4.678,3.744 -1.371,1.376 -2.474,2.933 -3.307,4.674 -0.834,1.74 -1.251,3.729 -1.251,5.968 0,2.451 0.478,4.712 1.432,6.785 0.954,2.073 2.333,3.874 4.135,5.401 1.8,1.527 4.005,2.723 6.614,3.585 2.608,0.862 5.579,1.294 8.913,1.294 2.743,0 5.23,-0.424 7.462,-1.27 2.232,-0.846 4.201,-2.017 5.909,-3.514 1.707,-1.496 3.139,-3.25 4.295,-5.261 1.156,-2.011 2.043,-4.165 2.662,-6.462 h -8.429 c -0.484,1.451 -1.049,2.842 -1.695,4.172 -0.645,1.33 -1.438,2.494 -2.379,3.492 -0.941,0.998 -2.084,1.791 -3.428,2.381 -1.345,0.59 -2.944,0.884 -4.8,0.884 -1.748,0 -3.22,-0.257 -4.416,-0.771 -1.197,-0.514 -2.158,-1.172 -2.884,-1.972 -0.726,-0.802 -1.25,-1.694 -1.573,-2.676 -0.323,-0.983 -0.484,-1.943 -0.484,-2.88 0,-1.632 0.43,-3.114 1.291,-4.443 0.86,-1.331 1.996,-2.571 3.408,-3.719 1.411,-1.15 3.018,-2.245 4.82,-3.288 1.8,-1.043 3.636,-2.094 5.505,-3.152 1.869,-1.058 3.704,-2.17 5.505,-3.334 1.802,-1.164 3.409,-2.441 4.82,-3.831 1.412,-1.391 2.548,-2.933 3.408,-4.626 0.86,-1.693 1.291,-3.598 1.291,-5.713 0,-2.51 -0.458,-4.838 -1.372,-6.985 C 19.131,8.556 17.773,6.689 15.972,5.102 14.17,3.515 11.932,2.268 9.256,1.36 6.581,0.454 3.495,0 0,0"
       style="fill:#71150f;fill-opacity:1;fill-rule:nonzero;stroke:none"
       transform="matrix(1.3333333,0,0,-1.3333333,569.4512,360.3688)"
       clip-path="url(#clipPath27)" />
    <path
       id="path28"
       d="M 0,0 H 16.456 L 8.349,19.862 Z M 13.633,40.27 39.285,-22.493 H 25.571 L 18.715,-5.714 H -2.541 L -9.72,-22.493 h -9.115 L 7.825,40.27 Z"
       style="fill:#71150f;fill-opacity:1;fill-rule:nonzero;stroke:none"
       transform="matrix(1.3333333,0,0,-1.3333333,629.87107,329.16827)"
       clip-path="url(#clipPath29)" />
    <path
       id="path30"
       d="M 0,0 H 13.068 L 31.984,-41.993 50.618,0 h 12.785 v -61.493 h -13.39 v 40.089 L 32.146,-61.493 H 26.983 L 8.51,-20.951 V -61.493 H 0 Z"
       style="fill:#71150f;fill-opacity:1;fill-rule:nonzero;stroke:none"
       transform="matrix(1.3333333,0,0,-1.3333333,691.36653,277.16827)"
       clip-path="url(#clipPath31)" />
    <path
       id="path32"
       d="M 0,0 18.069,-42.492 34.848,0 h 8.59 L 18.835,-62.4 H 12.584 L -13.875,0 Z"
       style="fill:#71150f;fill-opacity:1;fill-rule:nonzero;stroke:none"
       transform="matrix(1.3333333,0,0,-1.3333333,803.25133,277.16827)"
       clip-path="url(#clipPath33)" />
    <path
       id="path34"
       d="M 0,0 H 16.455 L 8.349,19.862 Z M 13.632,40.27 39.284,-22.493 H 25.57 L 18.714,-5.714 H -2.541 l -7.18,-16.779 h -9.115 L 7.824,40.27 Z"
       style="fill:#71150f;fill-opacity:1;fill-rule:nonzero;stroke:none"
       transform="matrix(1.3333333,0,0,-1.3333333,886.6328,329.16827)"
       clip-path="url(#clipPath35)" />
    <path
       id="path36"
       d="m 0,0 h 13.431 v -55.189 h 27.911 v -6.304 H 0 Z"
       style="fill:#71150f;fill-opacity:1;fill-rule:nonzero;stroke:none"
       transform="matrix(1.3333333,0,0,-1.3333333,948.1276,277.16827)"
       clip-path="url(#clipPath37)" />
    <path
       id="path38"
       d="m 0,0 10.877,-7.09 c 3.672,-2.395 5.789,-6.565 5.551,-10.943 L 15.11,-42.376 c -0.119,-2.191 -0.817,-4.263 -1.974,-6.04 l 23.361,-15.228 c 0.888,1.361 1.367,2.987 1.346,4.737 l -0.668,55.782 c -0.042,3.5 -2.078,6.969 -5.341,9.096 L 6.335,22.595 0,0 M -72.296,7.277 -48.27,-8.385 c -1.158,-1.775 -1.855,-3.847 -1.974,-6.037 l -1.317,-24.343 c -0.239,-4.379 1.877,-8.551 5.549,-10.946 l 10.212,-6.656 -6.334,-22.595 -25.5,16.624 c -3.263,2.127 -5.297,5.596 -5.34,9.096 L -73.642,2.54 c -0.02,1.753 0.459,3.379 1.346,4.737"
       style="fill:#be8989;fill-opacity:1;fill-rule:nonzero;stroke:none"
       transform="matrix(1.3333333,0,0,-1.3333333,793.7624,134.48267)"
       clip-path="url(#clipPath39)" />
    <path
       id="path40"
       d="M 0,0 H 0.001 L 22.44,-14.628 c 2.975,-1.94 6.797,-2.009 9.84,-0.177 l 11.132,6.7 c 2.408,1.45 2.47,4.918 0.116,6.453 l -18.49,12.054 -30.377,19.802 -19.569,-8.35 c -1.61,-0.688 -2.905,-1.784 -3.792,-3.145 L 0,0 M 62.377,25.912 19.909,53.596 c -3.261,2.128 -7.256,2.59 -10.477,1.216 L -10.136,46.461 44.26,10.999 62.377,25.912 m -73.361,-85.328 18.116,14.914 10.877,-7.091 c 3.673,-2.394 8.344,-2.648 12.253,-0.661 l 21.742,11.028 c 1.955,0.992 3.57,2.467 4.727,4.242 l 23.362,-15.229 c -0.886,-1.36 -2.181,-2.454 -3.793,-3.143 L 24.994,-77.255 c -3.221,-1.373 -7.216,-0.911 -10.479,1.216 z"
       style="fill:#71150f;fill-opacity:1;fill-rule:nonzero;stroke:none"
       transform="matrix(1.3333333,0,0,-1.3333333,735.63453,149.7248)"
       clip-path="url(#clipPath41)" />
    <path
       id="path42"
       d="M 0,0 C -0.886,-1.358 -1.365,-2.985 -1.346,-4.738 -1.368,-2.983 -0.886,-1.358 0,0 m 23.979,-15.736 c -0.019,-0.03 -0.038,-0.059 -0.058,-0.089 0.02,0.03 0.039,0.059 0.058,0.089 m -0.063,-0.1 c -0.009,-0.012 -0.017,-0.025 -0.025,-0.039 0.008,0.014 0.016,0.027 0.025,0.039 M 110.139,-66.4 c -0.018,-1.671 -0.496,-3.22 -1.346,-4.522 0.851,1.305 1.327,2.855 1.346,4.522"
       style="fill:#9a8c8b;fill-opacity:1;fill-rule:nonzero;stroke:none"
       transform="matrix(1.3333333,0,0,-1.3333333,697.36747,124.77947)"
       clip-path="url(#clipPath43)" />
    <path
       id="path44"
       d="m 0,0 24.026,-15.662 c -0.015,-0.024 -0.032,-0.048 -0.047,-0.074 -0.019,-0.03 -0.038,-0.059 -0.058,-0.089 -10e-4,-0.005 -0.004,-0.007 -0.005,-0.011 -0.009,-0.012 -0.017,-0.025 -0.025,-0.039 -1.077,-1.727 -1.726,-3.722 -1.84,-5.822 l -0.08,-1.471 -23.277,15.176 -0.04,3.254 C -1.365,-2.985 -0.886,-1.358 0,0 m 87.502,-48.197 22.597,-14.732 0.04,-3.255 c 0.001,-0.072 0.001,-0.144 0,-0.216 -0.019,-1.667 -0.495,-3.217 -1.346,-4.522 l -23.347,15.219 c 1.158,1.777 1.856,3.849 1.976,6.035 z"
       style="fill:#737373;fill-opacity:1;fill-rule:nonzero;stroke:none"
       transform="matrix(1.3333333,0,0,-1.3333333,697.36747,124.77947)"
       clip-path="url(#clipPath45)" />
    <path
       id="path46"
       d="M 0,0 H 12.861 V -3.311 H 4.04 v -4.614 h 8.08 v -3.31 H 4.04 v -7.012 H 0 Z"
       style="fill:#6f6f6e;fill-opacity:1;fill-rule:nonzero;stroke:none"
       transform="matrix(1.3333333,0,0,-1.3333333,625.5768,380.1292)"
       clip-path="url(#clipPath47)" />
    <path
       id="path48"
       d="m 0,0 c 0,-1.338 0.366,-2.394 1.1,-3.167 0.732,-0.773 1.695,-1.16 2.889,-1.16 1.158,0 2.092,0.387 2.8,1.16 C 7.496,-2.394 7.85,-1.338 7.85,0 v 10.74 h 4.039 V 0 c 0,-1.581 -0.319,-2.958 -0.958,-4.131 C 10.292,-5.304 9.379,-6.208 8.195,-6.842 7.01,-7.477 5.6,-7.794 3.963,-7.794 c -1.636,0 -3.055,0.317 -4.257,0.952 -1.202,0.634 -2.126,1.538 -2.774,2.711 C -3.716,-2.958 -4.04,-1.581 -4.04,0 V 10.74 H 0 Z"
       style="fill:#6f6f6e;fill-opacity:1;fill-rule:nonzero;stroke:none"
       transform="matrix(1.3333333,0,0,-1.3333333,661.06507,394.4496)"
       clip-path="url(#clipPath49)" />
    <path
       id="path50"
       d="m 0,0 h 3.682 l 9.741,-13.398 -1.048,-0.366 V 0 h 3.81 V -18.247 H 12.528 L 2.787,-4.875 3.861,-4.51 V -18.247 H 0 Z"
       style="fill:#6f6f6e;fill-opacity:1;fill-rule:nonzero;stroke:none"
       transform="matrix(1.3333333,0,0,-1.3333333,691.98573,380.1292)"
       clip-path="url(#clipPath51)" />
    <path
       id="path52"
       d="m 0,0 c 0.767,0 1.466,0.14 2.097,0.417 0.63,0.278 1.18,0.674 1.649,1.187 0.468,0.512 0.831,1.116 1.087,1.811 0.255,0.695 0.383,1.469 0.383,2.32 0,0.851 -0.136,1.629 -0.409,2.333 -0.273,0.703 -0.648,1.321 -1.125,1.851 -0.477,0.529 -1.044,0.934 -1.701,1.212 -0.656,0.277 -1.376,0.417 -2.16,0.417 H -3.63 V 0 Z M -0.102,14.885 C 1.295,14.885 2.57,14.663 3.72,14.22 4.871,13.776 5.864,13.151 6.699,12.343 7.534,11.535 8.182,10.574 8.642,9.463 9.103,8.351 9.333,7.116 9.333,5.761 9.333,4.423 9.103,3.197 8.642,2.086 8.182,0.974 7.525,0.009 6.673,-0.808 5.821,-1.625 4.811,-2.255 3.644,-2.697 2.476,-3.141 1.185,-3.362 -0.23,-3.362 h -7.44 v 18.247 z"
       style="fill:#6f6f6e;fill-opacity:1;fill-rule:nonzero;stroke:none"
       transform="matrix(1.3333333,0,0,-1.3333333,739.30333,399.9756)"
       clip-path="url(#clipPath53)" />
    <path
       id="path54"
       d="m 185.955,78.511 h 10.56 v -3.206 h -10.56 z m 3.451,11.392 h 4.143 l 7.619,-18.247 h -4.296 l -5.522,14.128 -5.548,-14.128 h -4.194 z"
       style="fill:#6f6f6e;fill-opacity:1;fill-rule:nonzero;stroke:none"
       transform="matrix(1.3333333,0,0,-1.3333333,520,500)"
       clip-path="url(#clipPath55)" />
    <path
       id="path56"
       d="M 0,0 C -0.597,0.747 -1.312,1.334 -2.147,1.76 -2.982,2.186 -3.818,2.398 -4.653,2.398 -5.42,2.398 -6.132,2.251 -6.788,1.955 -7.444,1.66 -8.024,1.247 -8.526,0.718 -9.029,0.187 -9.418,-0.435 -9.69,-1.146 c -0.273,-0.713 -0.41,-1.486 -0.41,-2.321 0,-0.816 0.137,-1.581 0.41,-2.294 0.272,-0.712 0.661,-1.333 1.164,-1.863 0.502,-0.53 1.082,-0.947 1.738,-1.251 0.656,-0.305 1.368,-0.456 2.135,-0.456 0.818,0 1.636,0.195 2.455,0.586 0.817,0.391 1.551,0.917 2.198,1.577 l 2.378,-2.528 c -0.631,-0.661 -1.342,-1.235 -2.135,-1.721 -0.793,-0.486 -1.624,-0.864 -2.493,-1.134 -0.869,-0.269 -1.738,-0.404 -2.607,-0.404 -1.347,0 -2.587,0.239 -3.721,0.717 -1.134,0.478 -2.122,1.147 -2.966,2.008 -0.844,0.86 -1.505,1.863 -1.981,3.01 -0.478,1.147 -0.716,2.389 -0.716,3.728 0,1.32 0.238,2.545 0.716,3.675 0.476,1.129 1.15,2.12 2.019,2.971 0.87,0.852 1.88,1.512 3.03,1.982 1.151,0.468 2.408,0.704 3.772,0.704 0.869,0 1.734,-0.122 2.595,-0.365 C -1.249,5.23 -0.438,4.888 0.32,4.445 1.078,4.002 1.756,3.458 2.353,2.815 Z"
       style="fill:#6f6f6e;fill-opacity:1;fill-rule:nonzero;stroke:none"
       transform="matrix(1.3333333,0,0,-1.3333333,817.60933,387.568)"
       clip-path="url(#clipPath57)" />
    <path
       id="path58"
       d="m 235.659,89.903 h 4.04 V 71.656 h -4.04 z"
       style="fill:#6f6f6e;fill-opacity:1;fill-rule:nonzero;stroke:none"
       transform="matrix(1.3333333,0,0,-1.3333333,520,500)"
       clip-path="url(#clipPath59)" />
    <path
       id="path60"
       d="M 0,0 3.477,-1.381 0,-4.196 l -2.864,0.26 z m -0.844,-8.811 c -0.751,0 -1.462,-0.147 -2.135,-0.442 -0.673,-0.296 -1.261,-0.713 -1.764,-1.252 -0.503,-0.538 -0.9,-1.164 -1.19,-1.876 -0.29,-0.713 -0.434,-1.486 -0.434,-2.32 0,-0.834 0.144,-1.612 0.434,-2.333 0.29,-0.722 0.691,-1.356 1.203,-1.903 0.511,-0.547 1.099,-0.973 1.764,-1.277 0.664,-0.305 1.371,-0.457 2.122,-0.457 0.75,0 1.453,0.152 2.11,0.457 0.655,0.304 1.231,0.73 1.725,1.277 0.494,0.547 0.882,1.181 1.163,1.903 0.282,0.721 0.422,1.499 0.422,2.333 0,0.834 -0.14,1.607 -0.422,2.32 -0.281,0.712 -0.669,1.338 -1.163,1.876 -0.494,0.539 -1.07,0.956 -1.725,1.252 -0.657,0.295 -1.36,0.442 -2.11,0.442 m -0.052,3.468 c 1.365,0 2.63,-0.235 3.797,-0.704 1.168,-0.47 2.187,-1.13 3.056,-1.981 C 6.826,-8.88 7.504,-9.87 7.99,-11 c 0.486,-1.13 0.729,-2.363 0.729,-3.701 0,-1.321 -0.243,-2.555 -0.729,-3.701 -0.486,-1.148 -1.164,-2.151 -2.033,-3.011 -0.869,-0.86 -1.888,-1.529 -3.056,-2.008 -1.167,-0.477 -2.432,-0.717 -3.797,-0.717 -1.363,0 -2.628,0.24 -3.796,0.717 -1.167,0.479 -2.186,1.148 -3.055,2.008 -0.87,0.86 -1.547,1.863 -2.033,3.011 -0.486,1.146 -0.729,2.38 -0.729,3.701 0,1.338 0.243,2.576 0.729,3.715 0.486,1.137 1.163,2.128 2.033,2.971 0.869,0.842 1.888,1.498 3.055,1.968 1.168,0.469 2.433,0.704 3.796,0.704"
       style="fill:#6f6f6e;fill-opacity:1;fill-rule:nonzero;stroke:none"
       transform="matrix(1.3333333,0,0,-1.3333333,867.41667,372.65787)"
       clip-path="url(#clipPath61)" />
    <path
       id="path62"
       d="m 0,0 h 3.682 l 9.742,-13.398 -1.049,-0.366 V 0 h 3.81 V -18.247 H 12.528 L 2.787,-4.875 3.86,-4.51 V -18.247 H 0 Z"
       style="fill:#6f6f6e;fill-opacity:1;fill-rule:nonzero;stroke:none"
       transform="matrix(1.3333333,0,0,-1.3333333,892.81387,380.1292)"
       clip-path="url(#clipPath63)" />
    <path
       id="path64"
       d="m 0,0 c -3.281,0 -6.15,0.431 -8.611,1.293 -2.46,0.861 -4.551,2.048 -6.272,3.56 -1.721,1.511 -3.092,3.317 -4.114,5.418 -1.022,2.102 -1.721,4.407 -2.097,6.916 h 9.317 c 0.322,-1.548 0.793,-2.991 1.412,-4.326 0.618,-1.336 1.405,-2.497 2.359,-3.483 0.954,-0.986 2.084,-1.761 3.388,-2.322 1.304,-0.563 2.816,-0.843 4.537,-0.843 1.13,0 2.252,0.136 3.368,0.408 1.116,0.273 2.118,0.719 3.005,1.339 0.887,0.62 1.6,1.422 2.138,2.405 0.537,0.984 0.806,2.201 0.806,3.655 0,1.815 -0.417,3.433 -1.25,4.855 C 7.152,20.297 6.05,21.591 4.679,22.756 3.308,23.92 1.748,25.002 0,26.001 c -1.748,0.998 -3.536,2.004 -5.364,3.018 -1.829,1.013 -3.617,2.08 -5.365,3.2 -1.748,1.119 -3.307,2.367 -4.678,3.744 -1.371,1.376 -2.474,2.933 -3.307,4.674 -0.834,1.74 -1.251,3.729 -1.251,5.968 0,2.451 0.478,4.712 1.432,6.785 0.954,2.073 2.333,3.874 4.135,5.401 1.8,1.527 4.005,2.723 6.614,3.585 2.608,0.862 5.579,1.294 8.913,1.294 2.743,0 5.23,-0.424 7.462,-1.27 2.232,-0.846 4.201,-2.017 5.909,-3.514 1.707,-1.496 3.139,-3.25 4.295,-5.261 1.156,-2.011 2.043,-4.165 2.662,-6.462 h -8.429 c -0.484,1.451 -1.049,2.842 -1.695,4.172 -0.645,1.33 -1.438,2.494 -2.379,3.492 -0.941,0.998 -2.084,1.791 -3.428,2.381 -1.345,0.59 -2.944,0.884 -4.8,0.884 -1.748,0 -3.22,-0.257 -4.416,-0.771 -1.197,-0.514 -2.158,-1.172 -2.884,-1.972 -0.726,-0.802 -1.25,-1.694 -1.573,-2.676 -0.323,-0.983 -0.484,-1.943 -0.484,-2.88 0,-1.632 0.43,-3.114 1.291,-4.443 0.86,-1.331 1.996,-2.571 3.408,-3.719 1.411,-1.15 3.018,-2.245 4.82,-3.288 1.8,-1.043 3.636,-2.094 5.505,-3.152 1.869,-1.058 3.704,-2.17 5.505,-3.334 1.802,-1.164 3.409,-2.441 4.82,-3.831 1.412,-1.391 2.548,-2.933 3.408,-4.626 0.86,-1.693 1.291,-3.598 1.291,-5.713 0,-2.51 -0.458,-4.838 -1.372,-6.985 C 19.131,8.556 17.773,6.689 15.972,5.102 14.17,3.515 11.932,2.268 9.256,1.36 6.581,0.454 3.495,0 0,0"
       style="fill:#71150f;fill-opacity:1;fill-rule:nonzero;stroke:none"
       transform="matrix(1.3333333,0,0,-1.3333333,569.4512,360.3688)"
       clip-path="url(#clipPath65)" />
    <path
       id="path66"
       d="M 0,0 H 16.456 L 8.349,19.862 Z M 13.633,40.27 39.285,-22.493 H 25.571 L 18.715,-5.714 H -2.541 L -9.72,-22.493 h -9.115 L 7.825,40.27 Z"
       style="fill:#71150f;fill-opacity:1;fill-rule:nonzero;stroke:none"
       transform="matrix(1.3333333,0,0,-1.3333333,629.87107,329.16827)"
       clip-path="url(#clipPath67)" />
    <path
       id="path68"
       d="M 0,0 H 13.068 L 31.984,-41.993 50.618,0 h 12.785 v -61.493 h -13.39 v 40.089 L 32.146,-61.493 H 26.983 L 8.51,-20.951 V -61.493 H 0 Z"
       style="fill:#71150f;fill-opacity:1;fill-rule:nonzero;stroke:none"
       transform="matrix(1.3333333,0,0,-1.3333333,691.36653,277.16827)"
       clip-path="url(#clipPath69)" />
    <path
       id="path70"
       d="M 0,0 18.069,-42.492 34.848,0 h 8.59 L 18.835,-62.4 H 12.584 L -13.875,0 Z"
       style="fill:#71150f;fill-opacity:1;fill-rule:nonzero;stroke:none"
       transform="matrix(1.3333333,0,0,-1.3333333,803.25133,277.16827)"
       clip-path="url(#clipPath71)" />
    <path
       id="path72"
       d="M 0,0 H 16.455 L 8.349,19.862 Z M 13.632,40.27 39.284,-22.493 H 25.57 L 18.714,-5.714 H -2.541 l -7.18,-16.779 h -9.115 L 7.824,40.27 Z"
       style="fill:#71150f;fill-opacity:1;fill-rule:nonzero;stroke:none"
       transform="matrix(1.3333333,0,0,-1.3333333,886.6328,329.16827)"
       clip-path="url(#clipPath73)" />
    <path
       id="path74"
       d="m 0,0 h 13.431 v -55.189 h 27.911 v -6.304 H 0 Z"
       style="fill:#71150f;fill-opacity:1;fill-rule:nonzero;stroke:none"
       transform="matrix(1.3333333,0,0,-1.3333333,948.1276,277.16827)"
       clip-path="url(#clipPath75)" />
    <path
       id="path76"
       d="m 0,0 10.877,-7.09 c 3.672,-2.395 5.789,-6.565 5.551,-10.943 L 15.11,-42.376 c -0.119,-2.191 -0.817,-4.263 -1.974,-6.04 l 23.361,-15.228 c 0.888,1.361 1.367,2.987 1.346,4.737 l -0.668,55.782 c -0.042,3.5 -2.078,6.969 -5.341,9.096 L 6.335,22.595 0,0 M -72.296,7.277 -48.27,-8.385 c -1.158,-1.775 -1.855,-3.847 -1.974,-6.037 l -1.317,-24.343 c -0.239,-4.379 1.877,-8.551 5.549,-10.946 l 10.212,-6.656 -6.334,-22.595 -25.5,16.624 c -3.263,2.127 -5.297,5.596 -5.34,9.096 L -73.642,2.54 c -0.02,1.753 0.459,3.379 1.346,4.737"
       style="fill:#be8989;fill-opacity:1;fill-rule:nonzero;stroke:none"
       transform="matrix(1.3333333,0,0,-1.3333333,793.7624,134.48267)"
       clip-path="url(#clipPath77)" />
    <path
       id="path78"
       d="M 0,0 H 0.001 L 22.44,-14.628 c 2.975,-1.94 6.797,-2.009 9.84,-0.177 l 11.132,6.7 c 2.408,1.45 2.47,4.918 0.116,6.453 l -18.49,12.054 -30.377,19.802 -19.569,-8.35 c -1.61,-0.688 -2.905,-1.784 -3.792,-3.145 L 0,0 M 62.377,25.912 19.909,53.596 c -3.261,2.128 -7.256,2.59 -10.477,1.216 L -10.136,46.461 44.26,10.999 62.377,25.912 m -73.361,-85.328 18.116,14.914 10.877,-7.091 c 3.673,-2.394 8.344,-2.648 12.253,-0.661 l 21.742,11.028 c 1.955,0.992 3.57,2.467 4.727,4.242 l 23.362,-15.229 c -0.886,-1.36 -2.181,-2.454 -3.793,-3.143 L 24.994,-77.255 c -3.221,-1.373 -7.216,-0.911 -10.479,1.216 z"
       style="fill:#71150f;fill-opacity:1;fill-rule:nonzero;stroke:none"
       transform="matrix(1.3333333,0,0,-1.3333333,735.63453,149.7248)"
       clip-path="url(#clipPath79)" />
    <path
       id="path80"
       d="M 0,0 C -0.886,-1.358 -1.365,-2.985 -1.346,-4.738 -1.368,-2.983 -0.886,-1.358 0,0 m 23.979,-15.736 c -0.019,-0.03 -0.038,-0.059 -0.058,-0.089 0.02,0.03 0.039,0.059 0.058,0.089 m -0.063,-0.1 c -0.009,-0.012 -0.017,-0.025 -0.025,-0.039 0.008,0.014 0.016,0.027 0.025,0.039 M 110.139,-66.4 c -0.018,-1.671 -0.496,-3.22 -1.346,-4.522 0.851,1.305 1.327,2.855 1.346,4.522"
       style="fill:#9a8c8b;fill-opacity:1;fill-rule:nonzero;stroke:none"
       transform="matrix(1.3333333,0,0,-1.3333333,697.36747,124.77947)"
       clip-path="url(#clipPath81)" />
    <path
       id="path82"
       d="m 0,0 24.026,-15.662 c -0.015,-0.024 -0.032,-0.048 -0.047,-0.074 -0.019,-0.03 -0.038,-0.059 -0.058,-0.089 -10e-4,-0.005 -0.004,-0.007 -0.005,-0.011 -0.009,-0.012 -0.017,-0.025 -0.025,-0.039 -1.077,-1.727 -1.726,-3.722 -1.84,-5.822 l -0.08,-1.471 -23.277,15.176 -0.04,3.254 C -1.365,-2.985 -0.886,-1.358 0,0 m 87.502,-48.197 22.597,-14.732 0.04,-3.255 c 0.001,-0.072 0.001,-0.144 0,-0.216 -0.019,-1.667 -0.495,-3.217 -1.346,-4.522 l -23.347,15.219 c 1.158,1.777 1.856,3.849 1.976,6.035 z"
       style="fill:#737373;fill-opacity:1;fill-rule:nonzero;stroke:none"
       transform="matrix(1.3333333,0,0,-1.3333333,697.36747,124.77947)"
       clip-path="url(#clipPath83)" />
  </g>
</svg>
