<?xml version="1.0" encoding="UTF-8" standalone="no"?>
<!-- Created with Inkscape (http://www.inkscape.org/) -->

<svg
   version="1.1"
   id="svg1"
   width="500"
   height="500"
   viewBox="0 0 500 500"
   sodipodi:docname="ORIGINAL-SAMVALLOGO.ai"
   xmlns:inkscape="http://www.inkscape.org/namespaces/inkscape"
   xmlns:sodipodi="http://sodipodi.sourceforge.net/DTD/sodipodi-0.dtd"
   xmlns="http://www.w3.org/2000/svg"
   xmlns:svg="http://www.w3.org/2000/svg">
  <defs
     id="defs1">
    <clipPath
       clipPathUnits="userSpaceOnUse"
       id="clipPath2">
      <path
         d="M 93.166,84.875 H 295.293 V 328.924 H 93.166 Z"
         transform="translate(-226.5604,-248.2516)"
         id="path2" />
    </clipPath>
    <clipPath
       clipPathUnits="userSpaceOnUse"
       id="clipPath4">
      <path
         d="M 93.166,84.875 H 295.293 V 328.924 H 93.166 Z"
         transform="translate(-147.4722,-227.51331)"
         id="path4" />
    </clipPath>
    <clipPath
       clipPathUnits="userSpaceOnUse"
       id="clipPath6">
      <path
         d="M 93.166,84.875 H 295.293 V 328.924 H 93.166 Z"
         transform="translate(-95.406302,-261.4537)"
         id="path6" />
    </clipPath>
    <clipPath
       clipPathUnits="userSpaceOnUse"
       id="clipPath8">
      <path
         d="M 93.166,84.875 H 295.293 V 328.924 H 93.166 Z"
         transform="translate(-95.406302,-261.4537)"
         id="path8" />
    </clipPath>
  </defs>
  <sodipodi:namedview
     id="namedview1"
     pagecolor="#ffffff"
     bordercolor="#000000"
     borderopacity="0.25"
     inkscape:showpageshadow="2"
     inkscape:pageopacity="0.0"
     inkscape:pagecheckerboard="0"
     inkscape:deskcolor="#d1d1d1">
    <inkscape:page
       x="0"
       y="0"
       inkscape:label="1"
       id="page1"
       width="500"
       height="500"
       margin="113.16547 106.276 61.434666 123.95107"
       bleed="0" />
  </sodipodi:namedview>
  <g
     id="layer-MC0"
     inkscape:groupmode="layer"
     inkscape:label="Capa 1">
    <path
       id="path1"
       d="m 0,0 19.732,-12.863 c 6.662,-4.344 10.502,-11.91 10.071,-19.851 l -2.391,-44.162 c -0.216,-3.974 -1.482,-7.733 -3.583,-10.956 l 42.381,-27.627 c 1.61,2.469 2.48,5.42 2.442,8.595 L 67.44,-5.67 C 67.363,0.681 63.671,6.974 57.751,10.833 L 11.492,40.989 0,0 m -131.154,13.202 43.586,-28.413 c -2.101,-3.221 -3.366,-6.98 -3.581,-10.952 l -2.39,-44.161 c -0.432,-7.945 3.407,-15.512 10.068,-19.857 l 18.526,-12.076 -11.491,-40.989 -46.259,30.157 c -5.921,3.859 -9.611,10.152 -9.689,16.502 l -1.212,101.194 c -0.035,3.181 0.834,6.131 2.442,8.595"
       style="fill:#bf8a8a;fill-opacity:1;fill-rule:nonzero;stroke:none"
       transform="matrix(1.3333333,0,0,-1.3333333,302.08053,168.99787)"
       clip-path="url(#clipPath2)" />
    <path
       id="path3"
       d="m 0,0 h 0.002 l 40.707,-26.537 c 5.397,-3.519 12.33,-3.644 17.851,-0.321 l 20.195,12.155 c 4.367,2.63 4.481,8.921 0.21,11.706 L 45.422,18.87 -9.686,54.793 -45.187,39.645 c -2.92,-1.247 -5.269,-3.236 -6.879,-5.705 L 0,0 M 113.16,47.007 36.118,97.23 c -5.917,3.859 -13.164,4.698 -19.007,2.206 l -35.5,-15.15 98.682,-64.332 32.867,27.053 M -19.926,-107.787 12.939,-80.732 32.67,-93.596 c 6.664,-4.343 15.137,-4.803 22.229,-1.2 l 39.443,20.007 c 3.547,1.8 6.476,4.475 8.576,7.696 l 42.38,-27.627 c -1.606,-2.467 -3.956,-4.453 -6.88,-5.702 L 45.342,-140.15 c -5.843,-2.491 -13.09,-1.653 -19.01,2.206 z"
       style="fill:#720a0a;fill-opacity:1;fill-rule:nonzero;stroke:none"
       transform="matrix(1.3333333,0,0,-1.3333333,196.6296,196.64893)"
       clip-path="url(#clipPath4)" />
    <path
       id="path5"
       d="M 0,0 C -1.608,-2.464 -2.477,-5.414 -2.442,-8.595 -2.482,-5.411 -1.608,-2.464 0,0 m 43.501,-28.546 c -0.035,-0.055 -0.07,-0.108 -0.105,-0.163 0.035,0.055 0.07,0.108 0.105,0.163 m -0.115,-0.182 c -0.016,-0.023 -0.03,-0.045 -0.045,-0.071 0.015,0.026 0.029,0.048 0.045,0.071 m 156.42,-91.729 c -0.033,-3.033 -0.9,-5.842 -2.442,-8.204 1.544,2.367 2.408,5.179 2.442,8.204"
       style="fill:#9b8d8d;fill-opacity:1;fill-rule:nonzero;stroke:none"
       transform="matrix(1.3333333,0,0,-1.3333333,127.2084,151.39507)"
       clip-path="url(#clipPath6)" />
    <path
       id="path7"
       d="m 0,0 43.586,-28.413 c -0.028,-0.042 -0.057,-0.087 -0.085,-0.133 -0.035,-0.055 -0.07,-0.108 -0.105,-0.163 -0.003,-0.008 -0.008,-0.013 -0.01,-0.019 -0.016,-0.023 -0.03,-0.045 -0.045,-0.071 -1.953,-3.133 -3.13,-6.752 -3.339,-10.563 l -0.144,-2.667 -42.227,27.53 -0.073,5.904 C -2.477,-5.414 -1.608,-2.464 0,0 m 158.739,-87.435 40.994,-26.726 0.073,-5.905 c 10e-4,-0.13 10e-4,-0.261 0,-0.391 -0.034,-3.025 -0.898,-5.837 -2.442,-8.204 l -42.354,27.61 c 2.1,3.223 3.366,6.981 3.584,10.948 z"
       style="fill:#737373;fill-opacity:1;fill-rule:nonzero;stroke:none"
       transform="matrix(1.3333333,0,0,-1.3333333,127.2084,151.39507)"
       clip-path="url(#clipPath8)" />
  </g>
</svg>
